<?xml version="1.0" encoding="UTF-8" standalone="yes"?><svg xmlns="http://www.w3.org/2000/svg" xmlns:xlink="http://www.w3.org/1999/xlink" height="864px" style="width:656px;height:864px;" version="1.1" viewBox="0 0 656 864" width="656px"><defs><filter height="300%" id="f1" width="300%" x="-1" y="-1"><feGaussianBlur result="blurOut" stdDeviation="4.0"/><feColorMatrix in="blurOut" result="blurOut2" type="matrix" values="0 0 0 0 0 0 0 0 0 0 0 0 0 0 0 0 0 0 .4 0"/><feOffset dx="8.0" dy="8.0" in="blurOut2" result="blurOut3"/><feBlend in="SourceGraphic" in2="blurOut3" mode="normal"/></filter></defs><g><polygon fill="#FFFFFF" filter="url(#f1)" points="44,680,86,680,100,724.9766,504,724.9766,504,850,44,850,44,680" style="stroke: #000000; stroke-width: 4.0;"/><line style="stroke: #000000; stroke-width: 4.0;" x1="44" x2="100" y1="724.9766" y2="724.9766"/><text fill="#000000" font-family="sans-serif" font-size="28" font-weight="bold" lengthAdjust="spacingAndGlyphs" textLength="30" x="52" y="711.0703">UI</text><polygon fill="#FFFFFF" filter="url(#f1)" points="88,48,156,48,170,92.9766,390,92.9766,390,582,88,582,88,48" style="stroke: #000000; stroke-width: 4.0;"/><line style="stroke: #000000; stroke-width: 4.0;" x1="88" x2="170" y1="92.9766" y2="92.9766"/><text fill="#000000" font-family="sans-serif" font-size="28" font-weight="bold" lengthAdjust="spacingAndGlyphs" textLength="56" x="96" y="79.0703">App</text><rect fill="#FEFECE" filter="url(#f1)" height="68.2656" rx="25" ry="25" style="stroke: #A80036; stroke-width: 3.0;" width="176" x="76" y="750"/><text fill="#000000" font-family="sans-serif" font-size="24" lengthAdjust="spacingAndGlyphs" textLength="136" x="96" y="793.2031">view-model</text><rect fill="#FEFECE" filter="url(#f1)" height="68.2656" rx="25" ry="25" style="stroke: #A80036; stroke-width: 3.0;" width="90" x="381" y="750"/><text fill="#000000" font-family="sans-serif" font-size="24" lengthAdjust="spacingAndGlyphs" textLength="50" x="401" y="793.2031">view</text><rect fill="#FEFECE" filter="url(#f1)" height="68.2656" rx="25" ry="25" style="stroke: #A80036; stroke-width: 3.0;" width="118" x="179" y="118"/><text fill="#000000" font-family="sans-serif" font-size="24" lengthAdjust="spacingAndGlyphs" textLength="78" x="199" y="161.2031">control</text><rect fill="#FEFECE" filter="url(#f1)" height="68.2656" rx="25" ry="25" style="stroke: #A80036; stroke-width: 3.0;" width="142" x="121" y="300"/><text fill="#000000" font-family="sans-serif" font-size="24" lengthAdjust="spacingAndGlyphs" textLength="102" x="141" y="343.2031">reconcile</text><rect fill="#FEFECE" filter="url(#f1)" height="68.2656" rx="25" ry="25" style="stroke: #A80036; stroke-width: 3.0;" width="112" x="124" y="482"/><text fill="#000000" font-family="sans-serif" font-size="24" lengthAdjust="spacingAndGlyphs" textLength="72" x="144" y="525.2031">model</text><path d="M252.702,784 C291.716,784 336.34,784 370.534,784 " fill="none" style="stroke: #A80036; stroke-width: 2.0;"/><polygon fill="#A80036" points="380.792,784,362.792,776,370.792,784,362.792,792,380.792,784" style="stroke: #A80036; stroke-width: 2.0;"/><text fill="#000000" font-family="sans-serif" font-size="26" lengthAdjust="spacingAndGlyphs" textLength="86" x="273.5" y="771.1367">update</text><path d="M434.476,749.5586 C456.4,657.952 505.67,393.128 392,226 C372.446,197.248 338.274,179.712 307.08,169.156 " fill="none" style="stroke: #A80036; stroke-width: 2.0;"/><polygon fill="#A80036" points="297.514,166.1,312.2261,179.1978,307.0398,169.1429,317.0947,163.9566,297.514,166.1" style="stroke: #A80036; stroke-width: 2.0;"/><text fill="#000000" font-family="sans-serif" font-size="26" lengthAdjust="spacingAndGlyphs" textLength="192" x="462" y="435.1367">dispatch signal</text><path d="M211.721,186.48 C203.7734,198.226 196.0768,212.046 192,226 C186.0776,246.27 185.4646,269.666 186.5912,289.312 " fill="none" style="stroke: #A80036; stroke-width: 2.0;"/><polygon fill="#A80036" points="187.3732,299.798,194.0139,281.2534,186.6303,289.8256,178.0582,282.442,187.3732,299.798" style="stroke: #A80036; stroke-width: 2.0;"/><text fill="#000000" font-family="sans-serif" font-size="26" lengthAdjust="spacingAndGlyphs" textLength="194" x="194" y="253.1367">dispatch action</text><path d="M189.799,368.648 C187.8538,397.502 185.0034,439.784 182.8778,471.314 " fill="none" style="stroke: #A80036; stroke-width: 2.0;"/><polygon fill="#A80036" points="182.187,481.56,191.3825,464.1404,182.8613,471.5828,175.4189,463.0615,182.187,481.56" style="stroke: #A80036; stroke-width: 2.0;"/><text fill="#000000" font-family="sans-serif" font-size="26" lengthAdjust="spacingAndGlyphs" textLength="86" x="190" y="435.1367">update</text><path d="M178.038,550.372 C175.1592,597.874 169.7862,686.5288 166.5874,739.3088 " fill="none" style="stroke: #A80036; stroke-width: 2.0;"/><polygon fill="#A80036" points="165.978,749.3636,175.0526,731.8807,166.5832,739.3819,159.0819,730.9125,165.978,749.3636" style="stroke: #A80036; stroke-width: 2.0;"/><text fill="#000000" font-family="sans-serif" font-size="26" lengthAdjust="spacingAndGlyphs" textLength="86" x="176" y="641.1367">update</text></g></svg>