<?xml version="1.0" encoding="UTF-8" standalone="yes"?><svg xmlns="http://www.w3.org/2000/svg" xmlns:xlink="http://www.w3.org/1999/xlink" height="432px" style="width:335px;height:432px;" version="1.1" viewBox="0 0 335 432" width="335px"><defs><filter height="300%" id="f1" width="300%" x="-1" y="-1"><feGaussianBlur result="blurOut" stdDeviation="2.0"/><feColorMatrix in="blurOut" result="blurOut2" type="matrix" values="0 0 0 0 0 0 0 0 0 0 0 0 0 0 0 0 0 0 .4 0"/><feOffset dx="4.0" dy="4.0" in="blurOut2" result="blurOut3"/><feBlend in="SourceGraphic" in2="blurOut3" mode="normal"/></filter></defs><g><polygon fill="#FFFFFF" filter="url(#f1)" points="22,340,43,340,50,362.4883,252,362.4883,252,425,22,425,22,340" style="stroke: #000000; stroke-width: 2.0;"/><line style="stroke: #000000; stroke-width: 2.0;" x1="22" x2="50" y1="362.4883" y2="362.4883"/><text fill="#000000" font-family="sans-serif" font-size="14" font-weight="bold" lengthAdjust="spacingAndGlyphs" textLength="15" x="26" y="355.5352">UI</text><polygon fill="#FFFFFF" filter="url(#f1)" points="41,24,75,24,82,46.4883,199,46.4883,199,291,41,291,41,24" style="stroke: #000000; stroke-width: 2.0;"/><line style="stroke: #000000; stroke-width: 2.0;" x1="41" x2="82" y1="46.4883" y2="46.4883"/><text fill="#000000" font-family="sans-serif" font-size="14" font-weight="bold" lengthAdjust="spacingAndGlyphs" textLength="28" x="45" y="39.5352">App</text><rect fill="#FEFECE" filter="url(#f1)" height="34.1328" rx="12.5" ry="12.5" style="stroke: #A80036; stroke-width: 1.5;" width="88" x="38" y="375"/><text fill="#000000" font-family="sans-serif" font-size="12" lengthAdjust="spacingAndGlyphs" textLength="68" x="48" y="396.6016">view-model</text><rect fill="#FEFECE" filter="url(#f1)" height="34.1328" rx="12.5" ry="12.5" style="stroke: #A80036; stroke-width: 1.5;" width="45" x="190.5" y="375"/><text fill="#000000" font-family="sans-serif" font-size="12" lengthAdjust="spacingAndGlyphs" textLength="25" x="200.5" y="396.6016">view</text><rect fill="#FEFECE" filter="url(#f1)" height="34.1328" rx="12.5" ry="12.5" style="stroke: #A80036; stroke-width: 1.5;" width="59" x="90.5" y="59"/><text fill="#000000" font-family="sans-serif" font-size="12" lengthAdjust="spacingAndGlyphs" textLength="39" x="100.5" y="80.6016">control</text><rect fill="#FEFECE" filter="url(#f1)" height="34.1328" rx="12.5" ry="12.5" style="stroke: #A80036; stroke-width: 1.5;" width="71" x="57.5" y="150"/><text fill="#000000" font-family="sans-serif" font-size="12" lengthAdjust="spacingAndGlyphs" textLength="51" x="67.5" y="171.6016">reconcile</text><rect fill="#FEFECE" filter="url(#f1)" height="34.1328" rx="12.5" ry="12.5" style="stroke: #A80036; stroke-width: 1.5;" width="56" x="59" y="241"/><text fill="#000000" font-family="sans-serif" font-size="12" lengthAdjust="spacingAndGlyphs" textLength="36" x="69" y="262.6016">model</text><path d="M126.351,392 C145.858,392 168.17,392 185.267,392 " fill="none" style="stroke: #A80036; stroke-width: 1.0;"/><polygon fill="#A80036" points="190.396,392,181.396,388,185.396,392,181.396,396,190.396,392" style="stroke: #A80036; stroke-width: 1.0;"/><text fill="#000000" font-family="sans-serif" font-size="13" lengthAdjust="spacingAndGlyphs" textLength="43" x="136.75" y="385.5684">update</text><path d="M217.217,374.7938 C228.122,329.028 252.624,196.707 196,113 C186.519,98.985 170.046,90.281 154.854,84.952 " fill="none" style="stroke: #A80036; stroke-width: 1.0;"/><polygon fill="#A80036" points="149.763,83.271,157.056,89.8901,154.5111,84.838,159.5632,82.2931,149.763,83.271" style="stroke: #A80036; stroke-width: 1.0;"/><text fill="#000000" font-family="sans-serif" font-size="13" lengthAdjust="spacingAndGlyphs" textLength="103" x="231" y="217.5684">dispatch signals</text><path d="M101.7109,93.271 C96.5945,98.947 91.6982,105.732 89,113 C85.2809,123.019 85.7454,134.819 87.3694,144.74 " fill="none" style="stroke: #A80036; stroke-width: 1.0;"/><polygon fill="#A80036" points="88.3083,149.736,90.5757,140.1517,87.384,144.8222,82.7136,141.6305,88.3083,149.736" style="stroke: #A80036; stroke-width: 1.0;"/><text fill="#000000" font-family="sans-serif" font-size="13" lengthAdjust="spacingAndGlyphs" textLength="104" x="90" y="126.5684">dispatch actions</text><path d="M91.8995,184.324 C90.9269,198.751 89.5017,219.892 88.4389,235.657 " fill="none" style="stroke: #A80036; stroke-width: 1.0;"/><polygon fill="#A80036" points="88.0935,240.78,92.6912,232.0702,88.4306,235.7914,84.7094,231.5308,88.0935,240.78" style="stroke: #A80036; stroke-width: 1.0;"/><text fill="#000000" font-family="sans-serif" font-size="13" lengthAdjust="spacingAndGlyphs" textLength="43" x="92" y="217.5684">update</text><path d="M86.3869,275.186 C85.4872,298.937 83.8082,343.2644 82.8085,369.6544 " fill="none" style="stroke: #A80036; stroke-width: 1.0;"/><polygon fill="#A80036" points="82.6181,374.6818,86.9562,365.8398,82.8075,369.6854,78.9619,365.5367,82.6181,374.6818" style="stroke: #A80036; stroke-width: 1.0;"/><text fill="#000000" font-family="sans-serif" font-size="13" lengthAdjust="spacingAndGlyphs" textLength="43" x="87" y="320.5684">update</text></g></svg>